# xmcd
#
# Track frame offsets:
#	150
#	14186
#	28488
#	43137
#	57149
#	71774
#	84993
#	98850
#	113922
#	128697
#
# Disc length: 1906 seconds
#
# Revision: 0
# Processed by: cddbd v1.5.2PL0 Copyright (c) Steve Scherf et al.
# Submitted via: EasyCDDAExtractor 16.0.6.1
#
DISCID=8c07700a
DTITLE=Συλλογικός δίσκος - Ιστορία ρεμπέτικου και λαϊκού 01-4
DYEAR=2007
DGENRE=Ποικίλη
TTITLE0=Εσκενάζυ Ρόζα - Χαρικλάκι [Παν. Τούντα]
TTITLE1=Περπινιάδης Στελλάκης-Παγανά Άννα Πολίτισσα - Όρκο στο λουλά σού κάνω 
TTITLE1=[διασκ. Δημ. Κυριαζόπουλος]
TTITLE2=Κασιμάτης Ζαχαρίας - Ερηνάκι [Ζαχ. Κασιμάτη]
TTITLE3=Εσκενάζυ Ρόζα - Στης Αθήνας τις ομορφιές [Δημ. Πολίτη]
TTITLE4=Εσκενάζυ Ρόζα - Το σωδεράκι [Παν. Τούντα]
TTITLE5=Περπινιάδης Στελλάκης - Φέρτε πρέζα να πρεζάρω [Παν. Τούντα]
TTITLE6=Εσκενάζυ Ρόζα - Νέο χασαπάκι [Ρόζας Εσκενάζυ]
TTITLE7=Εσκενάζυ Ρόζα - Το ναυτάκι [Ιάκωβου Μοντανάρη]
TTITLE8=Εσκενάζυ Ρόζα - Γίνομαι άνδρας [Παν. Τούντα]
TTITLE9=Εσκενάζυ Ρόζα - Τα λεφτά σου δεν τα θέλω [Παν. Τούντα]
EXTD=
EXTT0=
EXTT1=
EXTT2=
EXTT3=
EXTT4=
EXTT5=
EXTT6=
EXTT7=
EXTT8=
EXTT9=
PLAYORDER=
